<svg width="198" height="32" viewBox="0 0 198 32" fill="none" xmlns="http://www.w3.org/2000/svg">
<path d="M7.68001 31.3944L9.88492 24.6225H20.6049L22.8098 31.3944H29.5406L19.2993 1.6966H11.205L0.949219 31.3944H7.68001ZM11.4806 19.7212L15.1361 8.48301H15.3682L19.0237 19.7212H11.4806Z" fill="white"/>
<path d="M33.08 31.3944H39.2596V9.12105H33.08V31.3944ZM36.1843 6.24988C38.0266 6.24988 39.5352 4.84329 39.5352 3.11769C39.5352 1.40659 38.0266 0 36.1843 0C34.3566 0 32.8479 1.40659 32.8479 3.11769C32.8479 4.84329 34.3566 6.24988 36.1843 6.24988Z" fill="white"/>
<path d="M44.2098 31.3944H50.3893V18.0246C50.3893 15.5594 51.956 13.9208 54.0159 13.9208C56.0467 13.9208 57.4103 15.3129 57.4103 17.5026V31.3944H63.4012V17.7926C63.4012 15.4869 64.7213 13.9208 66.9697 13.9208C68.9425 13.9208 70.4221 15.1534 70.4221 17.6331V31.3944H76.5872V16.415C76.5872 11.5862 73.715 8.83103 69.5663 8.83103C66.3024 8.83103 63.7639 10.4986 62.85 13.0508H62.6179C61.9071 10.4696 59.6297 8.83103 56.5689 8.83103C53.5662 8.83103 51.2887 10.4261 50.3603 13.0508H50.0992V9.12105H44.2098V31.3944Z" fill="white"/>
<path d="M91.5357 31.8294C97.4686 31.8294 101.197 28.3492 101.487 23.2304H95.6554C95.2927 25.6085 93.7261 26.9426 91.6082 26.9426C88.7215 26.9426 86.8502 24.521 86.8502 20.2577C86.8502 16.0525 88.736 13.6453 91.6082 13.6453C93.8711 13.6453 95.3217 15.1389 95.6554 17.3575H101.487C101.226 12.2097 97.3236 8.83103 91.5066 8.83103C84.7468 8.83103 80.5691 13.5148 80.5691 20.3447C80.5691 27.1166 84.6743 31.8294 91.5357 31.8294Z" fill="white"/>
<path d="M111.623 18.5176C111.637 15.6464 113.393 13.9643 115.917 13.9643C118.426 13.9643 119.906 15.5739 119.891 18.3146V31.3944H126.071V17.2125C126.085 11.9922 123.01 8.83103 118.368 8.83103C114.988 8.83103 112.725 10.4261 111.71 13.0508H111.449V1.6966H105.443V31.3944H111.623V18.5176Z" fill="white"/>
<path d="M141.088 31.8294C146.6 31.8294 150.314 29.1468 151.184 25.014L145.469 24.637C144.845 26.3336 143.25 27.2181 141.19 27.2181C138.1 27.2181 136.142 25.1735 136.142 21.8528V21.8383H151.315V20.1417C151.315 12.5723 146.731 8.83103 140.842 8.83103C134.285 8.83103 130.035 13.4858 130.035 20.3592C130.035 27.4212 134.227 31.8294 141.088 31.8294ZM136.142 18.0101C136.272 15.4724 138.202 13.4423 140.943 13.4423C143.627 13.4423 145.484 15.3564 145.498 18.0101H136.142Z" fill="white"/>
<path d="M173.886 15.4724C173.335 11.3687 170.028 8.83103 164.399 8.83103C158.699 8.83103 154.941 11.4702 154.956 15.7625C154.941 19.0977 157.045 21.2583 161.397 22.1283L165.255 22.8969C167.199 23.2884 168.084 23.9989 168.113 25.1155C168.084 26.4351 166.648 27.3777 164.486 27.3777C162.281 27.3777 160.816 26.4351 160.439 24.6225L154.361 24.9415C154.941 29.2048 158.568 31.8294 164.472 31.8294C170.245 31.8294 174.38 28.8857 174.394 24.492C174.38 21.2728 172.276 19.3442 167.953 18.4596L163.921 17.6476C161.846 17.198 161.077 16.4875 161.092 15.4144C161.077 14.0803 162.586 13.2103 164.501 13.2103C166.648 13.2103 167.924 14.3849 168.229 15.8205L173.886 15.4724Z" fill="white"/>
<path d="M196.824 15.4724C196.273 11.3687 192.965 8.83103 187.337 8.83103C181.636 8.83103 177.879 11.4702 177.894 15.7625C177.879 19.0977 179.982 21.2583 184.334 22.1283L188.193 22.8969C190.137 23.2884 191.022 23.9989 191.051 25.1155C191.022 26.4351 189.585 27.3777 187.424 27.3777C185.219 27.3777 183.754 26.4351 183.377 24.6225L177.299 24.9415C177.879 29.2048 181.506 31.8294 187.41 31.8294C193.183 31.8294 197.317 28.8857 197.332 24.492C197.317 21.2728 195.214 19.3442 190.891 18.4596L186.858 17.6476C184.784 17.198 184.015 16.4875 184.03 15.4144C184.015 14.0803 185.524 13.2103 187.439 13.2103C189.585 13.2103 190.862 14.3849 191.167 15.8205L196.824 15.4724Z" fill="white"/>
</svg>
