<svg width="27" height="31" viewBox="0 0 27 31" fill="none" xmlns="http://www.w3.org/2000/svg">
<path d="M26.5726 22.6746C25.8463 24.2569 25.5091 24.9832 24.6012 26.384C23.3042 28.3554 21.4884 30.7937 19.2576 30.7937C17.2603 30.8196 16.7415 29.4967 14.0438 29.4967C11.3461 29.5227 10.7754 30.7937 8.77805 30.7937C6.52131 30.7678 4.8093 28.5629 3.51232 26.6174C-0.0932774 21.1442 -0.456431 14.7112 1.74843 11.2871C3.33074 8.84883 5.82094 7.44809 8.1555 7.44809C10.5419 7.44809 12.0464 8.74507 14.0178 8.74507C15.9374 8.74507 17.1046 7.44809 19.8542 7.44809C21.9294 7.44809 24.1343 8.58942 25.7166 10.5349C20.5546 13.3364 21.3847 20.7032 26.5726 22.6746Z" fill="white"/>
<path d="M17.7531 5.24304C18.7648 3.94606 19.517 2.15622 19.2317 0.288574C17.5975 0.392332 15.678 1.42992 14.5626 2.80471C13.5509 4.02387 12.7209 5.86558 13.0321 7.62947C14.822 7.68135 16.6637 6.61784 17.7531 5.24304Z" fill="white"/>
</svg>
