<svg width="61" height="61" viewBox="0 0 61 61" fill="none" xmlns="http://www.w3.org/2000/svg">
<circle cx="30.5005" cy="30.501" r="29.4778" fill="white" stroke="white" stroke-width="2.04444"/>
<path d="M25.3916 30.9137H28.0492V41.8547C28.0492 42.0708 28.2242 42.2458 28.4402 42.2458H32.9463C33.1623 42.2458 33.3373 42.0708 33.3373 41.8547V30.9653H36.3925C36.5912 30.9653 36.7583 30.8162 36.781 30.6189L37.245 26.591C37.2577 26.4802 37.2227 26.3692 37.1485 26.2861C37.0743 26.2029 36.9681 26.1552 36.8566 26.1552H33.3375V23.6303C33.3375 22.8692 33.7473 22.4832 34.5557 22.4832C34.6709 22.4832 36.8566 22.4832 36.8566 22.4832C37.0726 22.4832 37.2477 22.3081 37.2477 22.0922V18.3949C37.2477 18.1789 37.0726 18.0039 36.8566 18.0039H33.6856C33.6633 18.0028 33.6136 18.001 33.5404 18.001C32.9902 18.001 31.0777 18.109 29.567 19.4988C27.8932 21.0389 28.1259 22.8828 28.1815 23.2026V26.1551H25.3915C25.1755 26.1551 25.0005 26.3302 25.0005 26.5462V30.5227C25.0005 30.7386 25.1756 30.9137 25.3916 30.9137Z" fill="#28206E"/>
</svg>
