<svg width="61" height="62" viewBox="0 0 61 62" fill="none" xmlns="http://www.w3.org/2000/svg">
<circle cx="30.5001" cy="30.501" r="29.4778" stroke-width="2.04444"/>
<!-- <path opacity="0.5" fill-rule="evenodd" clip-rule="evenodd" d="M30.5005 59.6221C46.2161 59.6221 58.956 46.8821 58.956 31.1665C58.956 15.4509 46.2161 2.71095 30.5005 2.71095C14.7849 2.71095 2.04493 15.4509 2.04493 31.1665C2.04493 46.8821 14.7849 59.6221 30.5005 59.6221ZM30.5005 61.6665C47.3452 61.6665 61.0005 48.0112 61.0005 31.1665C61.0005 14.3218 47.3452 0.666504 30.5005 0.666504C13.6558 0.666504 0.000488281 14.3218 0.000488281 31.1665C0.000488281 48.0112 13.6558 61.6665 30.5005 61.6665Z" fill="white"/> -->
<path d="M25.3916 31.5793H28.0492V42.5203C28.0492 42.7363 28.2242 42.9113 28.4402 42.9113H32.9463C33.1623 42.9113 33.3373 42.7363 33.3373 42.5203V31.6308H36.3925C36.5912 31.6308 36.7583 31.4818 36.781 31.2844L37.245 27.2565C37.2577 27.1457 37.2227 27.0347 37.1485 26.9516C37.0743 26.8684 36.9681 26.8208 36.8566 26.8208H33.3375V24.2958C33.3375 23.5347 33.7473 23.1488 34.5557 23.1488C34.6709 23.1488 36.8566 23.1488 36.8566 23.1488C37.0726 23.1488 37.2477 22.9736 37.2477 22.7577V19.0604C37.2477 18.8444 37.0726 18.6694 36.8566 18.6694H33.6856C33.6633 18.6683 33.6136 18.6665 33.5404 18.6665C32.9902 18.6665 31.0777 18.7745 29.567 20.1643C27.8932 21.7044 28.1259 23.5484 28.1815 23.8681V26.8207H25.3915C25.1755 26.8207 25.0005 26.9957 25.0005 27.2117V31.1882C25.0005 31.4042 25.1756 31.5793 25.3916 31.5793Z" fill="white"/>
</svg>
