<svg width="61" height="62" viewBox="0 0 61 62" fill="none" xmlns="http://www.w3.org/2000/svg">
<circle cx="30.5001" cy="30.501" r="29.4778" stroke-width="2.04444"/>
<!-- <path opacity="0.5" fill-rule="evenodd" clip-rule="evenodd" d="M30.5 59.6221C46.2156 59.6221 58.9556 46.8821 58.9556 31.1665C58.9556 15.4509 46.2156 2.71095 30.5 2.71095C14.7844 2.71095 2.04444 15.4509 2.04444 31.1665C2.04444 46.8821 14.7844 59.6221 30.5 59.6221ZM30.5 61.6665C47.3447 61.6665 61 48.0112 61 31.1665C61 14.3218 47.3447 0.666504 30.5 0.666504C13.6553 0.666504 0 14.3218 0 31.1665C0 48.0112 13.6553 61.6665 30.5 61.6665Z" fill="white"/> -->
<path d="M43.6041 25.5096C43.5416 24.0922 43.3124 23.1177 42.984 22.2733C42.6453 21.377 42.1241 20.5745 41.4413 19.9074C40.7743 19.2299 39.9665 18.7035 39.0806 18.37C38.2313 18.0417 37.2619 17.8125 35.8444 17.75C34.4164 17.6822 33.963 17.6665 30.3411 17.6665C26.7192 17.6665 26.2659 17.6822 24.8431 17.7447C23.4257 17.8072 22.4512 18.0366 21.607 18.3647C20.7105 18.7035 19.908 19.2246 19.2409 19.9074C18.5634 20.5745 18.0372 21.3823 17.7035 22.2682C17.3752 23.1177 17.146 24.0869 17.0835 25.5043C17.0157 26.9324 17 27.3857 17 31.0076C17 34.6295 17.0157 35.0829 17.0782 36.5056C17.1407 37.9231 17.3701 38.8976 17.6984 39.742C18.0372 40.6383 18.5634 41.4408 19.2409 42.1079C19.908 42.7853 20.7158 43.3118 21.6017 43.6452C22.4512 43.9736 23.4204 44.2028 24.838 44.2653C26.2606 44.328 26.7141 44.3435 30.336 44.3435C33.9579 44.3435 34.4113 44.328 35.834 44.2653C37.2515 44.2028 38.226 43.9736 39.0702 43.6452C40.863 42.9521 42.2805 41.5346 42.9736 39.742C43.3018 38.8925 43.5312 37.9231 43.5937 36.5056C43.6562 35.0829 43.6719 34.6295 43.6719 31.0076C43.6719 27.3857 43.6666 26.9324 43.6041 25.5096ZM41.2017 36.4014C41.1443 37.7043 40.9255 38.4078 40.7431 38.8768C40.2948 40.039 39.3725 40.9614 38.2103 41.4096C37.7413 41.592 37.0326 41.8109 35.7349 41.8681C34.3278 41.9308 33.9058 41.9462 30.3464 41.9462C26.787 41.9462 26.3597 41.9308 24.9577 41.8681C23.6549 41.8109 22.9513 41.592 22.4823 41.4096C21.904 41.1959 21.3776 40.8571 20.9503 40.4142C20.5073 39.9816 20.1686 39.4604 19.9548 38.8821C19.7724 38.4131 19.5536 37.7043 19.4964 36.4067C19.4337 34.9996 19.4182 34.5774 19.4182 31.018C19.4182 27.4586 19.4337 27.0313 19.4964 25.6295C19.5536 24.3267 19.7724 23.6231 19.9548 23.1541C20.1686 22.5756 20.5073 22.0494 20.9556 21.6219C21.3879 21.1789 21.9091 20.8402 22.4876 20.6266C22.9566 20.4442 23.6655 20.2254 24.963 20.168C26.3701 20.1055 26.7923 20.0898 30.3515 20.0898C33.9162 20.0898 34.3382 20.1055 35.7402 20.168C37.043 20.2254 37.7466 20.4442 38.2156 20.6266C38.7939 20.8402 39.3204 21.1789 39.7476 21.6219C40.1906 22.0544 40.5294 22.5756 40.7431 23.1541C40.9255 23.6231 41.1443 24.3318 41.2017 25.6295C41.2642 27.0366 41.2799 27.4586 41.2799 31.018C41.2799 34.5774 41.2642 34.9943 41.2017 36.4014Z" fill="white"/>
<path d="M30.3411 24.1547C26.5578 24.1547 23.4882 27.2241 23.4882 31.0076C23.4882 34.7912 26.5578 37.8606 30.3411 37.8606C34.1247 37.8606 37.1941 34.7912 37.1941 31.0076C37.1941 27.2241 34.1247 24.1547 30.3411 24.1547ZM30.3411 35.453C27.8867 35.453 25.8958 33.4623 25.8958 31.0076C25.8958 28.553 27.8867 26.5623 30.3411 26.5623C32.7958 26.5623 34.7865 28.553 34.7865 31.0076C34.7865 33.4623 32.7958 35.453 30.3411 35.453Z" fill="white"/>
<path d="M39.0651 23.8837C39.0651 24.7672 38.3488 25.4836 37.4651 25.4836C36.5816 25.4836 35.8652 24.7672 35.8652 23.8837C35.8652 23 36.5816 22.2839 37.4651 22.2839C38.3488 22.2839 39.0651 23 39.0651 23.8837Z" fill="white"/>
</svg>
