<svg width="61" height="61" viewBox="0 0 61 61" fill="none" xmlns="http://www.w3.org/2000/svg">
<circle cx="30.5" cy="30.501" r="29.4778" fill="white" stroke="white" stroke-width="2.04444"/>
<path d="M43.6041 24.8441C43.5416 23.4266 43.3124 22.4522 42.984 21.6078C42.6453 20.7114 42.1241 19.909 41.4413 19.2419C40.7743 18.5644 39.9665 18.038 39.0806 17.7045C38.2313 17.3762 37.2619 17.1469 35.8444 17.0844C34.4164 17.0167 33.963 17.001 30.3411 17.001C26.7192 17.001 26.2659 17.0167 24.8431 17.0791C23.4257 17.1416 22.4512 17.3711 21.607 17.6992C20.7105 18.038 19.908 18.5591 19.2409 19.2419C18.5634 19.909 18.0372 20.7167 17.7035 21.6027C17.3752 22.4522 17.146 23.4214 17.0835 24.8388C17.0157 26.2668 17 26.7202 17 30.3421C17 33.964 17.0157 34.4174 17.0782 35.8401C17.1407 37.2576 17.3701 38.232 17.6984 39.0765C18.0372 39.9728 18.5634 40.7752 19.2409 41.4423C19.908 42.1198 20.7158 42.6462 21.6017 42.9797C22.4512 43.3081 23.4204 43.5373 24.838 43.5998C26.2606 43.6625 26.7141 43.6779 30.336 43.6779C33.9579 43.6779 34.4113 43.6625 35.834 43.5998C37.2515 43.5373 38.226 43.3081 39.0702 42.9797C40.863 42.2865 42.2805 40.8691 42.9736 39.0765C43.3018 38.227 43.5312 37.2576 43.5937 35.8401C43.6562 34.4174 43.6719 33.964 43.6719 30.3421C43.6719 26.7202 43.6666 26.2668 43.6041 24.8441ZM41.2017 35.7359C41.1443 37.0387 40.9255 37.7423 40.7431 38.2113C40.2948 39.3735 39.3725 40.2958 38.2103 40.7441C37.7413 40.9265 37.0326 41.1453 35.7349 41.2025C34.3278 41.2652 33.9058 41.2807 30.3464 41.2807C26.787 41.2807 26.3597 41.2652 24.9577 41.2025C23.6549 41.1453 22.9513 40.9265 22.4823 40.7441C21.904 40.5303 21.3776 40.1916 20.9503 39.7486C20.5073 39.3161 20.1686 38.7949 19.9548 38.2166C19.7724 37.7476 19.5536 37.0387 19.4964 35.7412C19.4337 34.3341 19.4182 33.9119 19.4182 30.3525C19.4182 26.7931 19.4337 26.3658 19.4964 24.964C19.5536 23.6612 19.7724 22.9576 19.9548 22.4886C20.1686 21.9101 20.5073 21.3838 20.9556 20.9563C21.3879 20.5134 21.9091 20.1746 22.4876 19.9611C22.9566 19.7787 23.6655 19.5598 24.963 19.5024C26.3701 19.4399 26.7923 19.4243 30.3515 19.4243C33.9162 19.4243 34.3382 19.4399 35.7402 19.5024C37.043 19.5598 37.7466 19.7787 38.2156 19.9611C38.7939 20.1746 39.3204 20.5134 39.7476 20.9563C40.1906 21.3889 40.5294 21.9101 40.7431 22.4886C40.9255 22.9576 41.1443 23.6662 41.2017 24.964C41.2642 26.3711 41.2799 26.7931 41.2799 30.3525C41.2799 33.9119 41.2642 34.3288 41.2017 35.7359Z" fill="#28206E"/>
<path d="M30.3411 23.4891C26.5578 23.4891 23.4882 26.5586 23.4882 30.3421C23.4882 34.1257 26.5578 37.1951 30.3411 37.1951C34.1247 37.1951 37.1941 34.1257 37.1941 30.3421C37.1941 26.5586 34.1247 23.4891 30.3411 23.4891ZM30.3411 34.7875C27.8867 34.7875 25.8958 32.7968 25.8958 30.3421C25.8958 27.8875 27.8867 25.8968 30.3411 25.8968C32.7958 25.8968 34.7865 27.8875 34.7865 30.3421C34.7865 32.7968 32.7958 34.7875 30.3411 34.7875Z" fill="#28206E"/>
<path d="M39.0651 23.2182C39.0651 24.1017 38.3488 24.818 37.4651 24.818C36.5816 24.818 35.8652 24.1017 35.8652 23.2182C35.8652 22.3345 36.5816 21.6183 37.4651 21.6183C38.3488 21.6183 39.0651 22.3345 39.0651 23.2182Z" fill="#28206E"/>
</svg>
