<svg width="61" height="62" viewBox="0 0 61 62" fill="none" xmlns="http://www.w3.org/2000/svg">
<circle cx="30.5001" cy="30.501" r="29.4778" stroke-width="2.04444"/>
<!-- <path opacity="0.5" fill-rule="evenodd" clip-rule="evenodd" d="M30.5 59.6225C46.2156 59.6225 58.9556 46.8826 58.9556 31.167C58.9556 15.4514 46.2156 2.71144 30.5 2.71144C14.7844 2.71144 2.04444 15.4514 2.04444 31.167C2.04444 46.8826 14.7844 59.6225 30.5 59.6225ZM30.5 61.667C47.3447 61.667 61 48.0117 61 31.167C61 14.3223 47.3447 0.666992 30.5 0.666992C13.6553 0.666992 0 14.3223 0 31.167C0 48.0117 13.6553 61.667 30.5 61.667Z" fill="white"/> -->
<path d="M41.9254 24.0175L44 22.0891V21.667H36.8132L31.6912 34.0544L25.8639 21.667H18.3283V22.0891L20.7517 24.9238C20.9878 25.1333 21.1113 25.4396 21.0799 25.748V36.888C21.1547 37.2891 21.0203 37.7017 20.73 37.9933L18 41.208V41.6249H25.7404V41.2028L23.0104 37.9933C22.7147 37.7007 22.5749 37.2954 22.6345 36.888V27.2523L29.4292 41.6302H30.2189L36.0613 27.2523V38.7059C36.0613 39.008 36.0613 39.0702 35.8577 39.268L33.756 41.2438V41.667H43.9523V41.2449L41.9265 39.3175C41.7488 39.187 41.6567 38.968 41.6947 38.7554V24.5796C41.6567 24.3659 41.7477 24.147 41.9254 24.0175Z" fill="white"/>
</svg>
