<svg width="61" height="62" viewBox="0 0 61 62" fill="none" xmlns="http://www.w3.org/2000/svg">
<circle cx="30.5" cy="30.5015" r="29.4778" fill="white" stroke="white" stroke-width="2.04444"/>
<path d="M41.9254 23.352L44 21.4236V21.0015H36.8132L31.6912 33.3888L25.8639 21.0015H18.3283V21.4236L20.7517 24.2583C20.9878 24.4678 21.1113 24.7741 21.0799 25.0825V36.2225C21.1547 36.6236 21.0203 37.0362 20.73 37.3278L18 40.5425V40.9594H25.7404V40.5373L23.0104 37.3278C22.7147 37.0352 22.5749 36.6299 22.6345 36.2225V26.5867L29.4292 40.9646H30.2189L36.0613 26.5867V38.0404C36.0613 38.3425 36.0613 38.4046 35.8577 38.6025L33.756 40.5783V41.0015H43.9523V40.5794L41.9265 38.652C41.7488 38.5215 41.6567 38.3025 41.6947 38.0899V23.9141C41.6567 23.7004 41.7477 23.4815 41.9254 23.352Z" fill="#28206E"/>
</svg>
