<svg width="37" height="13" viewBox="0 0 37 13" xmlns="http://www.w3.org/2000/svg">
<path d="M0 5.18C0 7.98 2.24 10.36 5.46 10.36C8.68 10.36 10.92 7.98 10.92 5.18C10.92 2.38 8.68 0 5.46 0C2.24 0 0 2.38 0 5.18ZM2.73 5.18C2.73 3.5 3.85 2.38 5.46 2.38C7.07 2.38 8.19 3.5 8.19 5.18C8.19 6.86 7.07 7.98 5.46 7.98C3.85 7.98 2.73 6.86 2.73 5.18ZM12.1045 10.08H14.4845V6.23C14.4845 5.25 15.1145 4.62 15.8845 4.62C16.6545 4.62 17.1445 5.11 17.1445 5.95V10.08H19.5245V5.6C19.5245 3.64 18.4745 2.59 16.7945 2.59C15.2545 2.59 14.6245 3.78 14.6245 3.78H14.4845V2.8H12.1045V10.08ZM20.8545 10.08H24.8445V8.19H23.2345V0.28H20.8545V10.08ZM24.8473 2.8L26.7373 10.08H28.3473L27.5773 12.74H30.0273L32.8273 2.8H30.3773L28.9773 8.05H28.5573L27.2973 2.8H24.8473ZM33.474 10.08H36.008V7.672H33.474V10.08Z"/>
</svg>
