<svg width="63" height="62" viewBox="0 0 63 62" fill="none" xmlns="http://www.w3.org/2000/svg">
<circle cx="30.5001" cy="30.501" r="29.4778" stroke-width="2.04444"/>
<!-- <path opacity="0.5" fill-rule="evenodd" clip-rule="evenodd" d="M31.3551 59.2879C47.1628 59.2879 59.9774 46.4733 59.9774 30.6657C59.9774 14.8581 47.1628 2.04347 31.3551 2.04347C15.5475 2.04347 2.73292 14.8581 2.73292 30.6657C2.73292 46.4733 15.5475 59.2879 31.3551 59.2879ZM31.3551 61.3324C48.2919 61.3324 62.0218 47.6024 62.0218 30.6657C62.0218 13.729 48.2919 -0.000976562 31.3551 -0.000976562C14.4184 -0.000976562 0.688477 13.729 0.688477 30.6657C0.688477 47.6024 14.4184 61.3324 31.3551 61.3324Z" fill="white"/> -->
<path d="M41.0773 34.5698L37.7481 31.3291L25.5264 43.2603L41.0773 34.5698Z" fill="white"/>
<path d="M41.0773 25.7481L25.5264 17.0576L37.7481 28.9888L41.0773 25.7481Z" fill="white"/>
<path d="M45.9504 31.7971C46.9471 31.0266 46.9471 29.2901 45.8842 28.5196L42.6223 26.6819L38.9829 30.1595L42.6223 33.6371L45.9504 31.7971Z" fill="white"/>
<path d="M22.3354 43.9561L36.5469 30.1538L22.3354 16.3572V16.3561C21.6164 16.7229 21.1343 17.3911 21.1343 18.2593V42.0528C21.1343 42.9211 21.6164 43.5892 22.3354 43.9561Z" fill="white"/>
</svg>
