<svg width="100" height="70" viewBox="0 0 100 70" fill="none" xmlns="http://www.w3.org/2000/svg">
<path fill-rule="evenodd" clip-rule="evenodd" d="M89.0257 2.50808C93.2753 3.64741 96.6265 6.9825 97.7702 11.2135C99.8958 18.9417 99.8141 35.0505 99.8141 35.0505C99.8141 35.0505 99.8141 51.0772 97.771 58.8061C96.6265 63.0363 93.2761 66.3722 89.0257 67.5107C81.2614 69.5453 50.205 69.5453 50.205 69.5453C50.205 69.5453 19.2296 69.5453 11.3843 67.4301C7.13393 66.2908 3.78357 62.955 2.63902 58.7247C0.595947 51.0772 0.595947 34.9691 0.595947 34.9691C0.595947 34.9691 0.595947 18.9417 2.63902 11.2135C3.78281 6.98326 7.21569 3.56603 11.3836 2.42746C19.1479 0.392944 50.2043 0.392944 50.2043 0.392944C50.2043 0.392944 81.2614 0.392944 89.0257 2.50808ZM66.1417 34.9691L40.3159 49.7759V20.1623L66.1417 34.9691Z" fill="white"/>
</svg>
