<svg width="61" height="62" viewBox="0 0 61 62" xmlns="http://www.w3.org/2000/svg">
<circle cx="30.5001" cy="30.501" r="29.4778" stroke-width="2.04444"/>
<!-- <path opacity="0.5" fill-rule="evenodd" clip-rule="evenodd" d="M30.5 59.6221C46.2156 59.6221 58.9556 46.8821 58.9556 31.1665C58.9556 15.4509 46.2156 2.71095 30.5 2.71095C14.7844 2.71095 2.04444 15.4509 2.04444 31.1665C2.04444 46.8821 14.7844 59.6221 30.5 59.6221ZM30.5 61.6665C47.3447 61.6665 61 48.0112 61 31.1665C61 14.3218 47.3447 0.666504 30.5 0.666504C13.6553 0.666504 0 14.3218 0 31.1665C0 48.0112 13.6553 61.6665 30.5 61.6665Z" fill="white"/>  -->
<path d="M46 23.3598C44.9587 23.8165 43.8492 24.1193 42.6925 24.2663C43.8825 23.5558 44.7908 22.4393 45.2178 21.0935C44.1083 21.755 42.8832 22.2223 41.5777 22.483C40.5243 21.3613 39.0227 20.6665 37.3848 20.6665C34.2067 20.6665 31.6482 23.246 31.6482 26.4083C31.6482 26.8633 31.6868 27.3008 31.7812 27.7173C27.009 27.4845 22.7862 25.1973 19.9495 21.713C19.4542 22.5723 19.1638 23.5558 19.1638 24.6145C19.1638 26.6025 20.1875 28.3648 21.7135 29.385C20.7912 29.3675 19.8865 29.0998 19.12 28.678C19.12 28.6955 19.12 28.7183 19.12 28.741C19.12 31.5305 21.1097 33.8475 23.719 34.3813C23.2517 34.509 22.7425 34.5703 22.214 34.5703C21.8465 34.5703 21.4755 34.5493 21.1272 34.4723C21.871 36.7455 23.9815 38.4168 26.491 38.471C24.538 39.9988 22.0582 40.9193 19.3738 40.9193C18.903 40.9193 18.4515 40.8983 18 40.8405C20.5427 42.4803 23.5563 43.4165 26.806 43.4165C37.369 43.4165 43.144 34.6665 43.144 27.082C43.144 26.8283 43.1353 26.5833 43.123 26.34C44.2622 25.5315 45.2195 24.5218 46 23.3598Z" fill="white"/>
</svg>
