<svg width="61" height="61" viewBox="0 0 61 61" fill="none" xmlns="http://www.w3.org/2000/svg">
<circle cx="30.5001" cy="30.501" r="29.4778" fill="white" stroke="white" stroke-width="2.04444"/>
<path d="M46.0001 22.6942C44.9589 23.151 43.8494 23.4537 42.6926 23.6007C43.8826 22.8902 44.7909 21.7737 45.2179 20.428C44.1084 21.0895 42.8834 21.5567 41.5779 21.8175C40.5244 20.6957 39.0229 20.001 37.3849 20.001C34.2069 20.001 31.6484 22.5805 31.6484 25.7427C31.6484 26.1977 31.6869 26.6352 31.7814 27.0517C27.0091 26.819 22.7864 24.5317 19.9496 21.0475C19.4544 21.9067 19.1639 22.8902 19.1639 23.949C19.1639 25.937 20.1876 27.6992 21.7136 28.7195C20.7914 28.702 19.8866 28.4342 19.1201 28.0125C19.1201 28.03 19.1201 28.0527 19.1201 28.0755C19.1201 30.865 21.1099 33.182 23.7191 33.7157C23.2519 33.8435 22.7426 33.9047 22.2141 33.9047C21.8466 33.9047 21.4756 33.8837 21.1274 33.8067C21.8711 36.08 23.9816 37.7512 26.4911 37.8055C24.5381 39.3332 22.0584 40.2537 19.3739 40.2537C18.9031 40.2537 18.4516 40.2327 18.0001 40.175C20.5429 41.8147 23.5564 42.751 26.8061 42.751C37.3691 42.751 43.1441 34.001 43.1441 26.4165C43.1441 26.1627 43.1354 25.9177 43.1231 25.6745C44.2624 24.866 45.2196 23.8562 46.0001 22.6942Z" fill="#28206E"/>
</svg>
