<svg width="63" height="34" viewBox="0 0 63 34" fill="none" xmlns="http://www.w3.org/2000/svg">
<path d="M31.47 33.0277C29.5686 32.993 27.6704 32.8569 25.7834 32.6198C23.1848 32.2809 20.6587 31.5187 18.3052 30.3632C17.0977 30.8995 15.8505 31.3405 14.5747 31.6824C9.13046 33.1405 3.64294 32.4202 -0.000976562 31.7432L1.47909 23.6805C4.33782 24.2787 7.26886 24.4512 10.1778 24.1925L9.92675 23.9148C7.57661 21.2771 6.24968 17.8806 6.18772 14.344C6.12576 10.8075 7.33289 7.36636 9.58919 4.64751C10.6916 3.32537 12.0659 2.25774 13.6181 1.51774C15.1703 0.777742 16.8636 0.38285 18.5821 0.360107V0.360107C20.2745 0.375985 21.9435 0.757046 23.4759 1.47739C25.0082 2.19772 26.3679 3.24045 27.4626 4.53468C29.6076 7.15371 30.7959 10.429 30.8306 13.8179C30.8652 17.2068 29.7441 20.5058 27.653 23.1684L27.2375 23.6718L26.5451 24.4529H26.7269C28.2918 24.6533 29.8666 24.7663 31.4441 24.7914C33.0215 24.7669 34.5964 24.6539 36.1612 24.4529H36.3517C36.1093 24.1925 35.8843 23.9321 35.6592 23.6718C35.4342 23.4114 35.3736 23.342 35.2438 23.1684C33.1563 20.5029 32.0397 17.2022 32.0791 13.8133C32.1185 10.4244 33.3114 7.15073 35.4602 4.53468C36.5569 3.23626 37.9206 2.19095 39.4579 1.4704C40.9952 0.749857 42.6696 0.371105 44.3665 0.360107C46.085 0.377804 47.7795 0.766862 49.3344 1.50076C50.8893 2.23465 52.2681 3.29612 53.3768 4.61279C55.6265 7.33582 56.8301 10.7763 56.7697 14.3118C56.7094 17.8473 55.3892 21.2445 53.0479 23.8887L52.8315 24.1231C55.7478 24.3633 58.6832 24.2027 61.5561 23.6457L62.9064 31.7432C58.345 32.5069 52.3641 33.1231 46.565 31.0923C45.9159 30.8666 45.284 30.6149 44.6608 30.3372C42.306 31.5023 39.777 32.2733 37.1739 32.6198C35.2869 32.8563 33.3887 32.9924 31.4873 33.0277H31.47ZM18.5821 8.56172C18.0396 8.5773 17.5069 8.71114 17.0212 8.95394C16.5354 9.19674 16.1082 9.54267 15.7691 9.96771C14.8276 11.1594 14.3261 12.641 14.3498 14.1612C14.3734 15.6814 14.9208 17.1465 15.899 18.3082L16.4962 18.9504C16.7126 19.1848 16.9376 19.4191 17.1627 19.6361C17.5781 20.044 18.0282 20.4258 18.4523 20.7904C19.0902 20.3056 19.6919 19.7747 20.2526 19.2021C20.5296 18.9157 20.8066 18.6206 21.0662 18.3342L21.3605 17.9784C22.2301 16.8085 22.6911 15.384 22.6724 13.925C22.6536 12.4661 22.156 11.0539 21.2567 9.90695C20.933 9.50503 20.5263 9.17821 20.0646 8.94897C19.6029 8.71974 19.0971 8.59355 18.5821 8.57907V8.56172ZM44.3665 8.56172C43.8498 8.57655 43.3426 8.70467 42.8806 8.93707C42.4185 9.16947 42.0128 9.50052 41.692 9.90695C40.7875 11.0575 40.2885 12.476 40.2728 13.9409C40.2571 15.4058 40.7258 16.8347 41.6055 18.0044L41.8998 18.3603C42.6792 19.2711 43.5493 20.0999 44.4964 20.8338C44.9465 20.4692 45.3619 20.0874 45.786 19.6795C46.0111 19.4625 46.2361 19.2281 46.4525 18.9938L47.0584 18.3516C48.0353 17.1889 48.5811 15.7232 48.6032 14.203C48.6253 12.6828 48.1223 11.2018 47.1795 10.0111C46.844 9.57897 46.4184 9.22542 45.9326 8.9751C45.4467 8.72478 44.9123 8.5837 44.3665 8.56172Z" fill="white"/>
</svg>
