<svg width="61" height="62" viewBox="0 0 61 62" fill="none" xmlns="http://www.w3.org/2000/svg">
<circle cx="30.5001" cy="30.501" r="29.4778" stroke-width="2.04444"/>
<!-- <path opacity="0.5" fill-rule="evenodd" clip-rule="evenodd" d="M30.5 59.6221C46.2156 59.6221 58.9556 46.8821 58.9556 31.1665C58.9556 15.4509 46.2156 2.71095 30.5 2.71095C14.7844 2.71095 2.04444 15.4509 2.04444 31.1665C2.04444 46.8821 14.7844 59.6221 30.5 59.6221ZM30.5 61.6665C47.3447 61.6665 61 48.0112 61 31.1665C61 14.3218 47.3447 0.666504 30.5 0.666504C13.6553 0.666504 0 14.3218 0 31.1665C0 48.0112 13.6553 61.6665 30.5 61.6665Z" fill="white"/> -->
<path fill-rule="evenodd" clip-rule="evenodd" d="M42.2155 21.3189C43.5234 21.6704 44.5548 22.6992 44.9068 24.0045C45.561 26.3886 45.5358 31.3582 45.5358 31.3582C45.5358 31.3582 45.5358 36.3023 44.907 38.6867C44.5548 39.9917 43.5237 41.0208 42.2155 41.3721C39.826 41.9997 30.2679 41.9997 30.2679 41.9997C30.2679 41.9997 20.7348 41.9997 18.3203 41.3472C17.0122 40.9957 15.981 39.9666 15.6288 38.6616C15 36.3023 15 31.333 15 31.333C15 31.333 15 26.3886 15.6288 24.0045C15.9808 22.6995 17.0373 21.6453 18.3201 21.294C20.7096 20.6664 30.2677 20.6664 30.2677 20.6664C30.2677 20.6664 39.826 20.6664 42.2155 21.3189ZM35.1726 31.333L27.2244 35.9009V26.7652L35.1726 31.333Z" fill="white"/>
</svg>
