<svg width="61" height="61" viewBox="0 0 61 61" fill="none" xmlns="http://www.w3.org/2000/svg">
<circle cx="30.4998" cy="30.501" r="29.4778" fill="white" stroke="white" stroke-width="2.04444"/>
<path fill-rule="evenodd" clip-rule="evenodd" d="M42.215 20.6532C43.5229 21.0047 44.5543 22.0336 44.9063 23.3389C45.5605 25.723 45.5353 30.6925 45.5353 30.6925C45.5353 30.6925 45.5353 35.6367 44.9065 38.021C44.5543 39.3261 43.5232 40.3552 42.215 40.7064C39.8255 41.3341 30.2674 41.3341 30.2674 41.3341C30.2674 41.3341 20.7343 41.3341 18.3198 40.6815C17.0117 40.3301 15.9805 39.301 15.6283 37.9959C14.9995 35.6367 14.9995 30.6674 14.9995 30.6674C14.9995 30.6674 14.9995 25.723 15.6283 23.3389C15.9803 22.0338 17.0368 20.9796 18.3196 20.6284C20.7091 20.0007 30.2672 20.0007 30.2672 20.0007C30.2672 20.0007 39.8255 20.0007 42.215 20.6532ZM35.1722 30.6674L27.2239 35.2352V26.0995L35.1722 30.6674Z" fill="#28206E"/>
</svg>
